<?xml version="1.0" standalone="no"?>
<!DOCTYPE svg PUBLIC "-//W3C//DTD SVG 20010904//EN"
 "http://www.w3.org/TR/2001/REC-SVG-20010904/DTD/svg10.dtd">
<svg version="1.0" xmlns="http://www.w3.org/2000/svg"
 width="500" height="500" viewBox="0 0 1024.000000 1024.000000"
 preserveAspectRatio="xMidYMid meet">

<g transform="translate(0.000000,1024.000000) scale(0.100000,-0.100000)"
fill="#FFFFFF" stroke="none">
<path d="M5233 9695 c-29 -8 -70 -23 -90 -34 -21 -10 -80 -35 -131 -55 -52
-20 -106 -44 -120 -55 -15 -10 -63 -37 -107 -60 -159 -83 -178 -96 -210 -141
-17 -24 -50 -56 -72 -70 -38 -23 -93 -64 -135 -100 -105 -90 -318 -298 -318
-310 0 -4 -11 -13 -25 -20 -33 -18 -54 -51 -60 -95 -2 -20 -16 -50 -30 -66
-14 -17 -25 -36 -25 -43 0 -18 -75 -175 -99 -206 -51 -69 -96 -149 -113 -204
-25 -80 -38 -178 -24 -173 6 2 10 16 9 30 -1 19 2 24 13 20 7 -3 14 -11 14
-18 0 -7 10 -15 23 -19 35 -9 77 -7 77 4 0 6 8 10 18 10 13 0 14 2 3 9 -7 5
-10 14 -7 20 4 6 0 11 -10 11 -29 0 -3 18 31 22 l30 3 -25 23 c-19 18 -21 22
-7 22 9 0 17 5 17 10 0 6 8 10 18 10 14 0 15 2 2 10 -11 7 -4 10 28 10 23 0
43 3 43 8 1 4 3 22 5 41 2 19 9 40 15 47 6 7 8 18 4 24 -3 5 2 10 14 10 11 0
23 5 26 10 3 6 17 10 30 10 13 0 26 4 29 9 3 4 -7 6 -22 5 -15 -2 -21 -1 -14
2 6 3 12 12 12 20 0 8 4 14 10 14 12 0 60 48 60 60 0 13 17 13 41 0 26 -15 44
-3 27 18 -11 13 -10 15 14 9 26 -7 78 9 78 23 0 10 48 30 71 30 11 0 34 15 52
33 41 43 111 82 161 90 22 4 43 12 47 20 9 16 93 40 196 58 47 8 70 16 66 23
-4 6 3 3 14 -6 22 -20 49 -23 58 -7 8 12 66 2 80 -15 11 -13 30 -14 63 -2 16
5 31 2 50 -10 33 -22 113 -30 110 -12 -3 15 20 15 82 -1 25 -6 58 -13 74 -17
21 -4 26 -8 17 -14 -16 -9 23 -19 84 -21 47 -1 206 -38 219 -50 6 -5 24 -9 42
-9 24 0 36 -7 50 -27 11 -17 19 -23 22 -15 3 9 7 10 17 2 9 -8 15 -8 20 0 13
21 26 9 23 -20 -2 -19 3 -34 12 -40 13 -9 13 -11 0 -19 -8 -6 -11 -13 -7 -18
5 -4 12 -1 17 6 10 17 40 7 40 -14 0 -8 4 -15 9 -15 5 0 12 -12 16 -27 4 -16
10 -22 12 -16 3 10 13 9 41 -3 45 -19 52 -29 51 -79 -1 -34 -2 -36 -9 -15 -8
28 -12 22 -30 -48 -6 -23 -8 -46 -6 -51 3 -5 -5 -12 -19 -15 -16 -4 -25 -13
-25 -26 0 -24 -35 -28 -44 -5 -6 17 -36 20 -36 4 0 -7 8 -18 18 -25 16 -12 15
-13 -7 -14 -22 0 -23 2 -19 60 5 66 26 100 65 100 16 0 23 -6 23 -20 0 -23 18
-27 26 -6 7 18 -24 86 -39 86 -7 0 -7 -4 1 -12 19 -19 14 -27 -28 -39 -22 -7
-40 -18 -40 -25 0 -7 -12 -14 -27 -16 l-26 -3 -3 -102 c-1 -58 2 -103 7 -103
5 0 9 18 9 40 0 27 4 40 14 40 20 0 31 -118 11 -139 -8 -9 -16 -37 -19 -61 -3
-25 -2 -35 2 -23 4 13 14 31 23 41 8 10 14 23 11 30 -4 13 43 65 68 75 8 3 -4
6 -27 6 -41 1 -43 2 -43 31 0 27 3 30 34 30 19 0 41 3 50 6 11 4 18 -5 27 -35
7 -23 16 -41 21 -41 4 0 8 -11 8 -24 0 -26 16 -36 61 -36 25 0 30 5 36 30 3
17 9 30 14 30 14 0 10 -23 -6 -44 -19 -25 -19 -36 -1 -36 17 0 36 -51 36 -97
0 -40 20 -41 31 -2 6 19 7 15 8 -18 1 -39 3 -43 26 -43 23 0 25 4 25 41 0 37
2 41 22 36 11 -3 34 1 51 9 17 10 32 12 36 6 3 -5 13 -12 21 -15 12 -4 11 -6
-2 -6 -10 -1 -18 -7 -18 -15 0 -8 -6 -16 -12 -19 -10 -4 -10 -7 0 -18 10 -11
12 -10 12 4 0 18 29 22 64 8 18 -7 16 -9 -12 -19 -18 -6 -32 -13 -32 -16 0 -5
50 3 62 10 4 3 5 -1 2 -9 -3 -8 9 -29 27 -47 28 -27 36 -31 51 -21 24 15 38 6
38 -24 0 -26 11 -31 83 -38 27 -2 37 1 37 11 0 11 -9 13 -40 8 -32 -5 -40 -3
-40 9 0 13 7 15 34 10 20 -4 36 -2 40 4 18 29 86 -3 86 -39 0 -11 3 -11 12 -2
19 19 49 14 55 -8 3 -11 12 -20 19 -20 10 0 13 7 8 25 -5 21 -3 25 14 25 11 0
26 2 34 5 7 3 37 -17 67 -44 47 -43 59 -49 84 -44 28 6 30 4 25 -19 -5 -25 -4
-25 26 -12 25 10 30 18 28 38 -2 18 2 26 13 26 8 0 15 8 15 18 0 10 5 23 12
30 9 9 9 18 0 37 -7 14 -12 35 -12 45 0 11 -5 20 -12 20 -9 0 -9 3 0 12 7 7
12 20 12 30 0 21 -45 68 -67 68 -9 0 -13 6 -9 15 3 8 0 14 -6 12 -7 -1 -21 16
-32 38 -24 44 -46 72 -46 56 0 -6 -18 -11 -40 -11 -22 0 -40 4 -40 9 0 16 -30
21 -50 9 -22 -14 -25 -12 -35 21 -5 16 -4 21 4 17 7 -5 11 1 11 14 0 14 -4 19
-12 14 -7 -5 -9 -2 -5 8 3 10 -4 20 -20 29 -36 20 -77 87 -63 103 8 10 -1 21
-37 45 -27 17 -42 31 -35 31 6 0 12 5 12 12 0 6 -3 8 -6 5 -4 -3 -15 -2 -25 4
-25 13 -24 1 3 -28 12 -13 16 -23 10 -23 -7 0 -12 -5 -12 -11 0 -6 -13 -24
-30 -39 -19 -18 -30 -23 -30 -14 0 17 -5 17 -30 4 -29 -16 -101 22 -119 61 -8
19 -18 28 -27 25 -26 -10 -46 5 -40 30 5 17 2 24 -9 24 -8 0 -15 5 -15 10 0 6
20 10 44 10 40 0 79 22 59 32 -15 8 -103 -4 -103 -14 0 -5 -7 -2 -16 6 -9 9
-26 14 -40 12 -16 -3 -24 0 -24 10 0 8 5 14 10 14 6 0 10 18 10 40 0 37 2 40
28 41 24 1 23 2 -7 8 -35 6 -56 31 -26 31 13 0 15 5 10 18 -18 41 -16 67 8 95
21 23 27 26 39 14 7 -8 38 -17 68 -21 68 -8 120 -25 120 -37 0 -5 7 -9 15 -9
16 0 116 -49 125 -61 3 -3 30 -18 60 -32 30 -15 62 -34 71 -44 9 -10 27 -27
40 -39 43 -36 101 -108 116 -142 9 -23 19 -32 29 -28 13 5 19 -10 15 -41 -1
-6 11 -13 26 -15 16 -2 28 -9 29 -18 0 -22 21 -67 33 -75 6 -3 11 -13 11 -22
0 -8 9 -28 21 -44 11 -16 18 -37 15 -45 -7 -17 17 -58 27 -47 4 3 7 -16 7 -44
0 -32 5 -53 13 -56 12 -4 35 -113 39 -187 1 -19 4 -39 7 -45 5 -10 13 -204 12
-295 -2 -153 0 -213 5 -222 4 -6 6 -31 6 -56 -1 -28 2 -42 8 -36 5 5 14 83 21
172 10 140 9 187 -5 325 -18 171 -47 338 -73 422 -9 28 -38 95 -64 150 -27 56
-53 125 -58 156 -10 60 -76 204 -119 259 -44 56 -61 86 -98 173 -20 45 -47 97
-60 115 -14 18 -32 52 -40 75 -10 29 -37 66 -85 113 -38 38 -99 107 -134 154
-36 47 -88 112 -115 145 -28 33 -60 74 -71 91 -11 18 -35 42 -54 55 -24 17
-40 40 -55 82 -57 155 -190 197 -363 116 -53 -24 -77 -30 -110 -27 -23 3 -71
2 -106 -3 -64 -7 -116 3 -136 26 -9 11 -117 27 -255 40 -25 2 -69 -2 -97 -10z
m797 -24 c0 -5 18 -11 40 -15 36 -6 45 -14 38 -32 -2 -3 10 -12 25 -20 29 -15
28 -34 -1 -34 -9 0 -36 7 -59 16 -33 13 -43 22 -43 40 0 12 -4 26 -10 29 -5 3
-10 10 -10 16 0 5 5 9 10 9 6 0 10 -4 10 -9z m180 -91 c0 -5 -4 -10 -10 -10
-5 0 -10 5 -10 10 0 6 5 10 10 10 6 0 10 -4 10 -10z m-160 -1070 c0 -5 -4 -10
-10 -10 -5 0 -10 5 -10 10 0 6 5 10 10 10 6 0 10 -4 10 -10z m110 -40 c0 -5
-7 -10 -15 -10 -8 0 -15 5 -15 10 0 6 7 10 15 10 8 0 15 -4 15 -10z m142 -22
c-9 -9 -15 -9 -24 0 -9 9 -7 12 12 12 19 0 21 -3 12 -12z m-112 -44 c0 -2 -7
-4 -15 -4 -8 0 -15 4 -15 10 0 5 7 7 15 4 8 -4 15 -8 15 -10z m125 -4 c7 -12
-2 -12 -30 0 -19 8 -19 9 2 9 12 1 25 -3 28 -9z m-35 -50 c0 -5 -2 -10 -4 -10
-3 0 -8 5 -11 10 -3 6 -1 10 4 10 6 0 11 -4 11 -10z m-2455 -50 c3 -5 1 -10
-4 -10 -6 0 -11 5 -11 10 0 6 2 10 4 10 3 0 8 -4 11 -10z m2255 -116 c0 -12
-6 -15 -22 -10 -13 3 -29 6 -36 6 -7 0 -10 5 -7 10 11 17 65 12 65 -6z m160
-121 c0 -20 -3 -24 -11 -16 -7 7 -9 19 -6 27 10 24 17 19 17 -11z m-30 -53 c0
-5 -4 -10 -10 -10 -5 0 -10 5 -10 10 0 6 5 10 10 10 6 0 10 -4 10 -10z m140
-30 c0 -5 -7 -10 -15 -10 -8 0 -15 5 -15 10 0 6 7 10 15 10 8 0 15 -4 15 -10z
m50 -20 c0 -5 -7 -10 -16 -10 -8 0 -12 5 -9 10 3 6 10 10 16 10 5 0 9 -4 9
-10z m-50 -20 c0 -5 -7 -10 -15 -10 -8 0 -15 5 -15 10 0 6 7 10 15 10 8 0 15
-4 15 -10z m617 -72 c-3 -8 -6 -5 -6 6 -1 11 2 17 5 13 3 -3 4 -12 1 -19z m72
-42 c0 -6 -3 -5 -6 2 -2 6 -11 12 -19 12 -16 0 -19 -37 -5 -60 15 -22 1 -34
-15 -13 -12 16 -15 16 -25 3 -9 -13 -10 -12 -5 3 3 10 6 30 6 43 0 14 6 24 14
24 8 0 17 8 21 18 6 16 7 16 21 -2 8 -11 14 -25 13 -30z m31 -107 c0 -5 -11
-9 -25 -9 -24 0 -32 10 -19 22 8 8 44 -3 44 -13z m0 -33 c0 -2 -7 -6 -15 -10
-8 -3 -15 -1 -15 4 0 6 7 10 15 10 8 0 15 -2 15 -4z"/>
<path d="M6481 8401 l-24 -6 27 -13 c20 -9 32 -9 48 -1 17 9 18 13 7 20 -16
10 -24 10 -58 0z"/>
<path d="M4007 8319 c7 -7 15 -10 18 -7 3 3 -2 9 -12 12 -14 6 -15 5 -6 -5z"/>
<path d="M5171 8291 c-14 -26 -14 -31 3 -31 8 0 17 -6 19 -12 4 -10 6 -10 6 0
1 6 8 12 17 12 10 0 14 7 12 23 -4 29 -43 35 -57 8z"/>
<path d="M6820 8230 c0 -5 5 -10 10 -10 6 0 10 5 10 10 0 6 -4 10 -10 10 -5 0
-10 -4 -10 -10z"/>
<path d="M3881 8201 c-7 -5 -9 -11 -4 -14 4 -3 17 1 28 9 21 16 0 20 -24 5z"/>
<path d="M5497 8133 c-12 -11 -8 -23 8 -23 8 0 15 7 15 15 0 16 -12 20 -23 8z"/>
<path d="M6956 8095 c-4 -10 1 -15 16 -15 17 0 18 2 8 15 -7 8 -14 15 -15 15
-2 0 -5 -7 -9 -15z"/>
<path d="M5760 8077 c0 -9 -6 -17 -14 -17 -16 0 -32 -38 -21 -48 4 -4 10 -1
12 6 3 7 14 22 26 33 16 15 18 22 9 31 -9 9 -12 8 -12 -5z"/>
<path d="M6010 8065 c0 -8 7 -15 15 -15 8 0 15 7 15 15 0 8 -7 15 -15 15 -8 0
-15 -7 -15 -15z"/>
<path d="M5120 8060 c0 -5 13 -10 29 -10 17 0 33 5 36 10 4 6 -8 10 -29 10
-20 0 -36 -4 -36 -10z"/>
<path d="M7112 8050 c0 -14 2 -19 5 -12 2 6 2 18 0 25 -3 6 -5 1 -5 -13z"/>
<path d="M3760 8046 c0 -17 -53 -32 -58 -17 -2 6 -15 11 -28 11 -18 0 -24 -5
-24 -20 0 -12 6 -20 13 -19 23 4 69 -21 74 -41 6 -24 19 -26 27 -4 3 8 2 12
-4 9 -16 -10 -12 12 6 29 8 9 11 16 5 16 -6 0 -11 5 -11 10 0 6 7 10 15 10 8
0 15 4 15 9 0 5 -7 11 -15 15 -9 3 -15 0 -15 -8z"/>
<path d="M5510 8010 c0 -5 5 -10 11 -10 5 0 7 5 4 10 -3 6 -8 10 -11 10 -2 0
-4 -4 -4 -10z"/>
<path d="M3653 7973 c-13 -2 -23 -8 -23 -13 0 -11 46 -19 61 -10 11 8 4 31 -9
29 -4 -1 -17 -4 -29 -6z"/>
<path d="M7201 7934 c0 -11 3 -14 6 -6 3 7 2 16 -1 19 -3 4 -6 -2 -5 -13z"/>
<path d="M5750 7925 c-7 -9 -9 -22 -4 -32 7 -16 8 -15 12 5 3 20 8 23 29 17
23 -5 24 -4 10 10 -19 19 -31 19 -47 0z"/>
<path d="M6350 7890 c0 -5 5 -10 10 -10 6 0 10 5 10 10 0 6 -4 10 -10 10 -5 0
-10 -4 -10 -10z"/>
<path d="M6320 7864 c0 -8 5 -12 10 -9 6 3 10 10 10 16 0 5 -4 9 -10 9 -5 0
-10 -7 -10 -16z"/>
<path d="M6318 7771 c-4 -25 -2 -28 15 -22 10 4 18 10 18 14 -1 4 -1 14 -1 22
0 28 -28 15 -32 -14z"/>
<path d="M7162 7545 c0 -16 2 -22 5 -12 2 9 2 23 0 30 -3 6 -5 -1 -5 -18z"/>
<path d="M4946 7475 c-10 -10 -16 -12 -16 -4 0 8 -10 9 -32 4 -18 -3 -61 -8
-96 -11 -34 -2 -66 -5 -70 -6 -4 -1 -16 3 -26 7 -13 6 -29 3 -47 -7 -23 -13
-27 -14 -22 -2 9 24 -14 15 -39 -15 -15 -18 -49 -38 -98 -56 -93 -34 -160 -72
-160 -90 0 -7 -6 -16 -12 -18 -7 -3 2 -6 20 -6 17 -1 32 -5 32 -11 0 -5 -10
-9 -23 -8 -13 1 -40 -11 -60 -26 -20 -16 -37 -25 -37 -22 0 4 -11 -1 -25 -10
-28 -18 -33 -34 -10 -34 25 0 17 -19 -10 -26 -19 -5 -23 -10 -15 -18 6 -9 6
-23 -2 -44 -10 -27 -9 -34 7 -51 18 -21 18 -21 -8 -21 -37 0 -42 -16 -12 -36
16 -10 24 -23 20 -32 -10 -26 53 -6 86 28 17 16 27 30 23 30 -15 0 31 29 47
30 9 0 22 7 29 15 13 16 45 21 35 6 -3 -5 -1 -12 5 -16 5 -3 10 -15 10 -26 0
-10 7 -19 15 -19 17 0 20 31 4 47 -14 14 10 23 36 12 17 -6 17 -8 3 -8 -10 -1
-18 -8 -18 -16 0 -18 49 -64 68 -65 6 0 12 -4 12 -10 0 -13 -17 -13 -25 0 -9
15 -27 1 -21 -16 3 -9 -2 -14 -14 -14 -11 0 -20 -3 -20 -7 0 -8 -69 -58 -79
-58 -3 0 -17 -12 -29 -27 -13 -15 -30 -28 -37 -28 -7 0 -27 -11 -43 -25 -17
-14 -34 -25 -39 -25 -4 0 -17 -11 -27 -25 -24 -32 -51 -32 -82 2 -30 33 -35
28 -24 -22 12 -50 4 -81 -15 -65 -17 14 -50 -1 -65 -30 -16 -29 7 -36 40 -12
26 20 31 20 57 7 31 -16 14 -17 284 31 53 9 105 14 115 10 16 -6 15 -9 -11
-26 -42 -27 -42 -50 1 -50 33 0 45 -12 24 -25 -6 -4 -8 -10 -5 -15 3 -5 -1
-12 -8 -17 -8 -4 -17 -17 -21 -29 -6 -20 -2 -21 91 -28 53 -4 102 -11 109 -17
8 -7 13 -6 16 2 2 7 10 9 17 5 9 -6 9 -11 -1 -24 -12 -15 -11 -16 5 -3 25 20
90 23 130 6 21 -9 38 -10 48 -4 25 16 57 10 83 -16 14 -14 31 -25 39 -25 20 0
13 -68 -9 -84 -11 -9 -15 -21 -11 -37 7 -27 -16 -65 -33 -54 -11 7 -40 -11
-40 -25 0 -5 8 -11 18 -14 10 -3 7 -4 -8 -3 -14 1 -25 -2 -26 -8 0 -5 -3 -17
-7 -25 -3 -8 -7 -24 -9 -35 -2 -12 -12 -21 -26 -23 -18 -3 -22 -10 -22 -37 0
-23 -8 -42 -26 -60 -21 -22 -25 -32 -20 -60 4 -18 3 -36 -2 -39 -5 -3 -7 -27
-4 -54 4 -48 3 -50 -34 -78 -22 -16 -43 -34 -49 -40 -5 -6 -22 -18 -36 -26
-14 -9 -32 -31 -39 -50 -8 -18 -17 -35 -20 -38 -12 -10 -34 -93 -34 -126 0
-30 -3 -34 -27 -34 -19 0 -28 -6 -32 -21 -4 -15 -11 -19 -26 -14 -14 4 -23 0
-31 -15 -7 -13 -7 -20 0 -20 32 0 -18 -75 -55 -82 -14 -3 -28 -1 -31 3 -10 17
-22 9 -29 -20 -3 -16 -15 -37 -26 -47 -22 -20 -25 -42 -5 -50 21 -8 28 -32 15
-55 -5 -11 -12 -36 -15 -56 -4 -36 -24 -72 -24 -44 0 7 -4 9 -10 6 -5 -3 -23
4 -39 16 -16 12 -34 18 -40 15 -7 -5 -9 -1 -5 8 9 25 -9 19 -30 -9 -23 -30
-36 -32 -36 -5 0 17 -3 19 -19 10 -25 -13 -34 -13 -26 0 3 5 2 18 -4 27 -8 15
-10 14 -16 -12 -11 -52 -18 -63 -22 -37 -4 18 -11 22 -39 22 -21 0 -33 -4 -29
-10 3 -5 1 -10 -4 -10 -6 0 -11 -7 -11 -15 0 -8 -4 -15 -10 -15 -5 0 -10 7
-10 15 0 8 5 15 10 15 6 0 10 5 10 10 0 16 -38 50 -56 50 -8 0 -12 5 -9 10 9
14 -17 38 -49 46 -29 7 -66 -17 -66 -43 0 -7 -4 -13 -10 -13 -5 0 -10 22 -10
49 0 36 -4 51 -16 55 -9 4 -14 9 -10 13 3 3 0 13 -8 22 -8 9 -15 19 -16 23 -8
34 -14 48 -21 48 -5 0 -9 7 -9 15 0 8 -7 15 -15 15 -8 0 -15 7 -15 16 0 8 -7
22 -15 30 -8 9 -15 31 -15 50 0 19 -9 54 -20 76 -11 23 -20 47 -20 54 0 7 -14
23 -31 35 -25 18 -30 27 -26 49 3 15 0 49 -7 76 -24 93 -13 344 26 599 7 44
12 120 11 169 -1 74 -4 92 -19 103 -10 7 -24 11 -30 9 -8 -3 -15 13 -19 45 -9
67 -28 58 -37 -17 -5 -45 -3 -63 9 -76 8 -9 12 -21 9 -27 -3 -5 0 -12 6 -14 9
-4 10 -8 2 -14 -6 -4 -14 -24 -17 -43 -3 -19 -3 -29 0 -22 2 6 9 12 14 12 12
0 12 -67 -1 -75 -5 -3 -8 -16 -6 -28 3 -12 5 -26 5 -30 1 -5 6 -5 11 -2 6 3
10 0 10 -8 0 -22 -34 -47 -63 -47 -15 0 -27 -5 -26 -12 1 -25 36 -73 52 -73
29 0 38 -18 22 -49 -8 -16 -15 -34 -15 -41 0 -6 -13 -30 -29 -52 -16 -22 -32
-50 -36 -64 -4 -13 -15 -31 -24 -40 -59 -58 -63 -69 -65 -156 -1 -61 3 -86 13
-92 15 -10 6 -31 -13 -31 -17 0 -26 -33 -15 -51 7 -12 9 -11 9 1 0 13 1 13 10
0 5 -8 5 -19 1 -25 -5 -5 -12 -31 -15 -57 -4 -26 -11 -50 -15 -53 -12 -7 14
-111 35 -143 12 -18 13 -27 6 -30 -16 -5 -15 -41 1 -48 11 -4 12 -17 2 -72 -7
-37 -16 -74 -19 -83 -4 -10 -2 -36 4 -59 7 -25 8 -46 2 -53 -7 -10 -9 -66 -3
-109 1 -5 11 -18 22 -29 l22 -22 -23 -17 c-26 -19 -22 -54 5 -44 19 8 20 -10
0 -26 -19 -16 -20 -88 -2 -109 7 -9 21 -50 31 -92 18 -80 30 -101 52 -92 9 3
14 -2 14 -14 0 -11 9 -46 19 -79 11 -32 22 -72 25 -87 4 -16 16 -31 29 -36 13
-5 28 -16 35 -24 7 -8 22 -13 32 -10 14 4 20 0 20 -12 0 -11 5 -15 14 -12 21
8 56 -26 50 -49 -4 -14 4 -26 25 -42 17 -12 31 -28 31 -34 0 -16 50 -59 82
-70 17 -6 28 -17 28 -29 0 -12 7 -19 20 -19 13 0 25 -10 33 -28 8 -19 17 -27
27 -24 13 5 13 3 0 -13 -13 -16 -13 -18 0 -13 16 5 50 -31 50 -53 0 -7 3 -10
6 -6 4 3 14 -3 23 -13 9 -11 27 -25 41 -32 30 -15 100 -90 100 -107 0 -6 5
-11 10 -11 6 0 10 5 10 10 0 17 29 11 49 -9 28 -28 59 -43 66 -31 3 5 12 7 21
3 11 -4 13 -14 9 -34 -6 -28 -5 -29 19 -19 14 5 28 5 31 0 3 -4 -3 -11 -12
-13 -13 -3 -11 -5 6 -6 13 0 30 -9 37 -18 11 -16 16 -16 34 -5 19 12 22 11 27
-7 5 -19 15 -26 36 -22 16 3 47 -20 47 -34 0 -10 10 -15 31 -15 35 0 62 -13
98 -46 29 -27 41 -30 41 -10 0 7 9 16 20 19 11 3 20 2 20 -2 0 -4 12 -13 26
-20 17 -7 24 -17 20 -26 -6 -17 9 -20 19 -4 5 7 15 5 31 -6 13 -8 44 -18 69
-22 25 -3 50 -12 56 -19 6 -8 18 -14 27 -14 11 0 10 5 -6 19 -37 32 -13 31 51
-3 67 -34 179 -60 206 -47 22 10 77 -2 73 -17 -1 -8 11 -12 35 -11 21 1 48 -2
61 -6 14 -5 22 -3 22 4 0 7 4 10 9 7 5 -3 7 -15 4 -26 -6 -24 13 -26 41 -5 24
18 50 19 79 3 12 -7 35 -11 51 -9 22 2 28 -1 23 -13 -8 -21 31 -32 46 -13 22
28 67 30 94 6 21 -21 28 -22 63 -12 26 6 40 7 43 0 5 -16 110 14 133 38 11 12
30 24 42 27 19 5 22 2 22 -20 l1 -27 20 27 c18 25 25 27 58 22 29 -5 51 0 95
21 31 15 65 28 74 29 9 2 17 9 17 17 0 23 36 69 54 69 9 0 23 -6 30 -12 11
-11 13 -9 8 11 -8 33 14 51 60 51 28 0 51 9 80 30 37 28 45 30 82 21 24 -5 41
-5 41 0 0 5 11 9 25 9 14 0 25 -4 25 -10 0 -5 6 -10 13 -10 8 0 19 -16 25 -36
6 -20 8 -34 5 -30 -3 3 -24 -17 -46 -44 -22 -28 -47 -50 -55 -50 -10 0 -12 -7
-8 -25 6 -22 3 -25 -21 -25 -22 0 -25 -2 -13 -10 12 -7 12 -12 2 -22 -6 -6
-12 -26 -12 -43 0 -16 -4 -45 -9 -63 -7 -25 -6 -35 6 -47 12 -12 12 -19 3 -30
-6 -8 -13 -33 -14 -57 -1 -23 -8 -44 -14 -46 -7 -2 -12 -9 -12 -16 0 -7 -14
-34 -31 -60 -17 -26 -30 -49 -28 -51 7 -7 114 136 151 203 121 215 145 297
152 513 1 52 6 101 11 108 4 8 2 17 -6 22 -11 6 -10 12 5 28 10 11 26 23 36
26 11 3 20 20 24 43 3 22 16 48 31 62 14 13 25 27 25 32 0 14 74 88 89 88 9 0
11 7 8 22 -7 27 9 59 27 52 18 -7 46 22 46 47 0 10 4 19 9 19 16 0 51 70 51
101 0 16 4 29 10 29 16 0 40 57 65 153 13 51 29 93 34 95 38 13 56 42 57 94 1
29 7 75 14 101 11 40 11 54 1 80 -7 18 -19 76 -27 131 -11 85 -11 102 1 127
18 33 10 118 -11 126 -19 7 -17 30 2 37 12 5 14 13 9 34 -8 28 -10 59 -20 227
-7 118 -7 113 1 191 4 43 3 64 -6 69 -20 12 -31 -10 -37 -74 -6 -66 -17 -85
-29 -49 -4 13 -2 24 5 26 12 4 15 32 3 32 -4 0 -8 15 -8 34 0 24 4 32 13 29
18 -7 16 12 -2 27 -20 17 -19 31 3 24 10 -4 13 -3 6 3 -6 4 -14 18 -18 31 -6
16 -3 22 8 22 9 0 16 5 16 10 0 6 -7 10 -15 10 -11 0 -15 11 -15 39 0 22 -4
51 -10 65 -5 14 -5 28 -1 31 5 2 12 30 16 60 3 30 11 55 16 55 5 0 9 18 9 39
0 33 4 40 24 45 30 7 41 45 18 62 -14 11 -14 13 -2 14 12 0 15 20 15 120 0 66
3 120 8 120 4 0 7 5 7 11 0 5 -4 8 -9 5 -4 -3 -7 11 -6 32 1 30 -16 161 -25
182 -3 6 -6 30 -8 56 -1 11 -11 30 -23 43 -15 15 -20 31 -17 52 4 25 2 28 -14
23 -14 -4 -18 0 -18 20 0 13 -3 31 -6 40 -4 11 0 16 12 16 18 1 18 1 -1 12
-11 6 -21 12 -23 14 -2 1 1 11 7 22 7 13 8 29 2 44 -10 23 -16 10 -11 -22 2
-12 -2 -11 -18 3 -16 15 -26 43 -37 112 -4 21 -20 51 -47 89 -15 21 -28 43
-28 47 0 4 -5 20 -12 36 -6 15 -11 31 -10 36 1 4 -2 7 -8 7 -5 0 -26 15 -45
34 -20 19 -46 38 -58 42 -12 4 -42 20 -66 37 -50 34 -126 60 -153 51 -11 -3
-18 0 -18 8 0 9 -16 13 -50 14 -39 0 -50 -3 -50 -15 0 -12 -2 -13 -8 -3 -7 10
-30 11 -113 2 -108 -10 -111 -10 -169 -9 -19 0 -36 -4 -38 -10 -2 -6 -25 -11
-52 -11 -45 0 -52 -4 -102 -52 -101 -100 -131 -176 -95 -246 15 -31 15 -36 1
-58 -9 -13 -23 -24 -30 -24 -8 0 -14 -6 -14 -12 0 -7 -11 -26 -25 -42 -14 -16
-25 -33 -25 -38 0 -4 -6 -8 -13 -8 -7 0 -20 -12 -30 -27 -25 -41 -60 -76 -93
-93 -23 -13 -28 -22 -26 -43 2 -15 0 -32 -4 -38 -3 -6 -8 -35 -10 -63 -4 -54
14 -115 42 -143 16 -16 19 -58 4 -48 -5 3 -10 1 -10 -4 0 -6 5 -11 10 -11 6 0
10 -13 10 -30 0 -17 5 -30 13 -30 9 0 8 -3 -2 -9 -8 -5 -9 -11 -3 -15 6 -3 8
-15 5 -26 -3 -11 -1 -20 4 -20 14 0 58 -39 59 -53 3 -33 19 -58 40 -63 13 -3
24 -10 24 -15 0 -8 21 -34 99 -116 24 -26 54 -71 67 -99 l23 -52 40 5 c37 5
41 3 41 -15 0 -11 5 -24 10 -27 14 -9 12 -114 -3 -129 -17 -17 -67 -29 -67
-16 0 5 -9 10 -20 10 -12 0 -33 6 -48 14 -15 8 -44 12 -65 10 -27 -3 -36 -1
-32 7 8 12 -32 3 -51 -12 -6 -5 -15 -4 -22 3 -9 9 -12 8 -12 -3 0 -26 -151
-71 -248 -75 -81 -3 -83 -3 -115 27 -86 83 -183 121 -312 123 -67 1 -86 -3
-119 -22 -34 -20 -42 -21 -67 -10 -52 23 -73 103 -48 191 10 38 71 106 136
154 17 12 33 33 35 46 4 21 -2 27 -44 45 -26 11 -48 16 -48 11 0 -5 -11 -9
-25 -9 -26 0 -33 14 -14 25 5 4 15 18 20 32 7 19 12 23 22 14 19 -15 72 7 88
36 7 13 16 23 20 23 5 0 15 13 24 30 9 18 21 27 29 24 8 -3 17 -1 20 4 3 6 -1
12 -9 16 -8 3 -15 11 -15 18 0 9 3 9 10 -2 9 -13 12 -13 21 3 12 21 39 23 39
2 0 -26 19 -16 22 12 2 14 9 28 17 31 9 3 11 -1 7 -16 -4 -11 -3 -23 3 -26 8
-5 15 4 21 29 3 16 22 35 30 30 4 -2 17 10 30 28 13 18 30 36 37 40 8 5 11 16
8 28 -5 15 0 20 24 25 31 6 42 21 47 64 1 14 5 34 9 45 5 16 0 23 -22 33 -15
6 -39 19 -53 26 -14 8 -34 18 -45 21 -16 5 -17 8 -5 15 8 6 11 10 5 10 -5 0
-21 10 -34 21 -17 14 -21 23 -13 31 17 17 3 39 -18 28 -16 -8 -19 -5 -25 20
-4 17 -13 30 -21 30 -8 0 -28 14 -44 31 -24 27 -27 35 -18 55 12 26 32 31 44
13 5 -8 10 -6 16 5 11 20 32 22 25 2 -9 -22 29 -8 63 24 32 30 48 74 31 84 -6
4 -11 21 -11 38 0 21 -6 31 -20 35 -12 3 -20 14 -20 27 0 14 -10 28 -24 36
-22 11 -37 36 -40 67 -2 21 -12 24 -117 25 -57 1 -109 5 -116 10 -6 5 -37 8
-70 6 -32 -1 -70 1 -84 6 -19 5 -31 3 -43 -9z m-526 -175 c0 -5 -13 -10 -30
-10 -16 0 -30 5 -30 10 0 6 14 10 30 10 17 0 30 -4 30 -10z m860 -180 c0 -5
-19 -9 -42 -9 l-43 2 40 7 c22 4 41 8 43 9 1 0 2 -3 2 -9z m-640 -40 c0 -5 -5
-10 -11 -10 -5 0 -7 5 -4 10 3 6 8 10 11 10 2 0 4 -4 4 -10z m-110 -4 c0 -11
-19 -15 -25 -6 -3 5 1 10 9 10 9 0 16 -2 16 -4z m294 -315 c7 -11 -17 -21 -50
-21 -25 0 -33 15 -11 23 20 9 55 8 61 -2z m1636 -100 c0 -6 -4 -13 -10 -16 -5
-3 -10 1 -10 9 0 9 5 16 10 16 6 0 10 -4 10 -9z m228 -39 c2 -7 -3 -12 -12
-12 -9 0 -16 7 -16 16 0 17 22 14 28 -4z m-3149 -173 c-9 -5 -15 -4 -18 2 -2
6 3 15 10 20 9 5 15 4 18 -2 2 -6 -3 -15 -10 -20z m2546 -129 c-3 -5 -12 -10
-18 -10 -7 0 -6 4 3 10 19 12 23 12 15 0z m1035 -262 c0 -12 7 -30 17 -40 15
-17 15 -18 0 -18 -10 0 -17 -4 -17 -9 0 -5 -11 -12 -24 -15 -17 -4 -28 -18
-37 -43 -7 -21 -14 -32 -16 -25 -3 6 -18 12 -35 12 -26 0 -29 -2 -18 -15 6 -8
13 -44 13 -80 2 -61 1 -65 -20 -65 -30 0 -29 -17 1 -41 14 -11 30 -35 36 -54
17 -53 29 -42 25 23 -3 31 -2 48 1 37 3 -11 12 -34 20 -52 8 -17 14 -48 14
-68 0 -32 -2 -36 -20 -30 -18 6 -20 3 -18 -28 1 -18 7 -34 12 -35 6 -1 23 -4
39 -8 17 -4 27 -2 27 5 0 6 15 11 32 11 l32 0 -23 -16 c-26 -19 -19 -30 23
-38 38 -7 45 -16 18 -23 -26 -6 -27 -10 -7 -29 8 -9 15 -25 15 -37 0 -16 -3
-18 -9 -9 -6 10 -10 7 -15 -13 -8 -32 -39 -31 -44 3 -2 12 -8 22 -13 22 -12 0
-11 -7 1 -31 6 -11 8 -24 4 -30 -4 -6 -13 2 -21 20 -13 26 -13 34 -2 47 10 13
10 17 -2 25 -19 12 -25 11 -38 -5 -6 -7 -9 -21 -5 -30 6 -17 -4 -20 -30 -10
-19 7 -21 31 -4 36 7 3 9 11 4 24 -7 15 -9 16 -13 4 -3 -8 -13 -21 -21 -28
-13 -10 -14 -16 -5 -31 9 -14 8 -22 -5 -34 -14 -15 -14 -18 2 -35 16 -18 16
-22 0 -61 -12 -31 -22 -41 -38 -41 -17 0 -27 -12 -44 -53 -12 -29 -22 -59 -22
-68 0 -22 -42 -17 -51 7 -4 10 -8 31 -8 47 -1 17 -6 27 -16 27 -8 0 -15 8 -15
19 0 10 -6 31 -14 46 -8 15 -12 34 -9 41 3 10 -3 14 -19 14 -23 0 -68 45 -68
68 0 5 -11 15 -25 22 -14 7 -25 19 -25 26 0 8 -6 11 -14 8 -9 -3 -17 3 -21 15
-4 14 -15 21 -33 21 -18 0 -23 3 -14 8 18 12 4 42 -19 42 -10 0 -19 7 -19 15
0 8 -9 15 -20 15 -11 0 -20 6 -20 13 0 7 -9 18 -20 25 -11 7 -20 19 -20 27 0
8 -4 15 -10 15 -5 0 -10 7 -10 15 0 8 -4 15 -10 15 -15 0 -12 47 3 53 10 4 10
7 0 18 -7 7 -13 21 -13 31 0 10 -6 27 -12 38 -11 17 -10 22 1 29 10 7 11 13 1
31 -9 16 -9 25 -1 33 6 6 11 19 11 29 0 11 11 19 33 23 18 4 37 6 42 5 23 -5
45 1 45 11 0 6 -9 8 -20 4 -15 -5 -20 -2 -20 14 0 11 5 23 10 26 16 10 11 22
-12 28 -18 5 -19 9 -9 21 7 8 10 20 6 26 -5 8 -2 9 11 1 11 -5 27 -12 38 -15
10 -4 16 -12 13 -20 -3 -8 -1 -16 5 -18 8 -3 8 -10 0 -25 -11 -20 -7 -33 10
-33 4 0 8 7 8 15 0 11 12 15 50 15 44 0 52 -3 61 -24 15 -33 49 -42 49 -13 0
33 14 10 25 -41 8 -37 15 -48 35 -53 22 -6 23 -7 4 -8 -22 -1 -38 -23 -27 -35
10 -9 41 -7 45 3 4 11 78 -18 78 -30 0 -5 -9 -9 -21 -9 -14 0 -19 -5 -17 -17
2 -10 11 -17 21 -17 12 1 17 -6 17 -22 0 -15 6 -24 15 -24 11 0 15 11 15 40 0
22 5 40 10 40 15 0 13 80 -2 80 -8 0 -6 5 4 11 10 5 15 16 12 24 -4 9 0 15 9
15 8 0 17 6 20 13 3 8 -8 12 -37 11 -28 -1 -31 0 -10 3 28 4 32 9 38 44 6 38
7 39 46 39 39 0 40 -1 42 -37 l1 -38 4 38 c3 29 9 37 24 37 16 0 19 7 19 40 0
29 4 40 15 40 9 0 15 -9 15 -22z m-533 -54 c-3 -3 -12 -4 -19 -1 -8 3 -5 6 6
6 11 1 17 -2 13 -5z m103 -14 c0 -5 -4 -10 -9 -10 -6 0 -13 5 -16 10 -3 6 1
10 9 10 9 0 16 -4 16 -10z m530 -30 c0 -22 -4 -40 -10 -40 -5 0 -10 18 -10 40
0 22 5 40 10 40 6 0 10 -18 10 -40z m-80 -107 c0 -7 -4 -13 -10 -13 -5 0 -10
12 -10 28 0 21 2 24 10 12 5 -8 10 -21 10 -27z m110 -23 c0 -5 -4 -10 -10 -10
-5 0 -10 5 -10 10 0 6 5 10 10 10 6 0 10 -4 10 -10z m-2470 -140 c0 -5 -5 -10
-11 -10 -5 0 -7 5 -4 10 3 6 8 10 11 10 2 0 4 -4 4 -10z m2320 0 c0 -5 -5 -10
-11 -10 -5 0 -7 5 -4 10 3 6 8 10 11 10 2 0 4 -4 4 -10z m-1855 -50 c3 -5 1
-10 -4 -10 -6 0 -11 5 -11 10 0 6 2 10 4 10 3 0 8 -4 11 -10z m2042 -202 c-2
-32 -27 -53 -27 -23 0 17 17 55 25 55 3 0 4 -14 2 -32z m-2207 2 c0 -5 -4 -10
-10 -10 -5 0 -10 5 -10 10 0 6 5 10 10 10 6 0 10 -4 10 -10z m2177 -72 c-3 -8
-6 -5 -6 6 -1 11 2 17 5 13 3 -3 4 -12 1 -19z m-3857 5 c-1 -12 -29 -47 -34
-42 -7 7 13 49 24 49 5 0 10 -3 10 -7z m33 -13 c-7 -26 -19 -34 -29 -19 -4 7
1 18 11 26 24 17 24 17 18 -7z m1863 -43 c12 4 16 -2 13 -23 0 -4 5 -10 12
-15 10 -6 9 -10 -5 -15 -11 -4 -21 -2 -26 6 -6 9 -20 11 -49 6 -25 -4 -41 -2
-41 4 0 5 8 10 18 10 11 0 27 9 38 21 10 11 20 16 22 10 2 -5 10 -7 18 -4z
m1794 3 c0 -5 -4 -10 -10 -10 -5 0 -10 5 -10 10 0 6 5 10 10 10 6 0 10 -4 10
-10z m-2005 -29 c16 -33 14 -36 -30 -45 -19 -4 -37 -2 -49 7 -17 12 -15 15 21
39 21 15 39 27 40 27 1 1 9 -12 18 -28z m98 -17 c-6 -17 -27 -24 -52 -17 -19
5 -19 7 -5 28 13 19 18 21 38 12 13 -6 22 -17 19 -23z m262 26 c4 -6 16 -8 27
-4 21 6 94 -12 113 -28 14 -12 129 -10 143 4 14 14 107 11 132 -5 11 -6 20
-17 20 -24 0 -7 9 -13 20 -13 11 0 20 -4 20 -10 0 -5 -48 -7 -121 -4 -82 3
-119 1 -114 -6 7 -11 -18 -14 -29 -3 -4 4 -47 8 -96 8 -81 0 -91 2 -105 22
-12 18 -22 21 -45 16 -37 -7 -40 11 -7 38 26 21 33 23 42 9z m1610 -9 c3 -5 1
-12 -5 -16 -5 -3 -10 1 -10 9 0 18 6 21 15 7z m-1080 -61 c3 -5 12 -7 19 -4 8
3 27 -1 43 -10 28 -15 28 -15 -30 -14 -57 1 -74 8 -62 28 8 13 22 13 30 0z
m-576 -146 c21 -19 6 -29 -27 -18 -35 12 -45 49 -10 39 12 -4 29 -13 37 -21z
m-224 -43 c22 -6 85 -16 140 -22 267 -26 292 -30 340 -48 52 -21 104 -34 140
-37 77 -7 140 -14 175 -20 19 -4 44 -8 55 -8 11 -1 19 -7 17 -14 -1 -9 5 -12
19 -10 33 5 45 -23 30 -71 -6 -23 -17 -41 -24 -41 -28 -1 -40 -17 -27 -40 9
-17 9 -25 -4 -39 -9 -10 -16 -25 -16 -34 0 -9 -4 -17 -10 -17 -5 0 -10 -6 -10
-14 0 -8 -4 -16 -8 -18 -4 -1 -17 -21 -28 -43 -23 -45 -26 -152 -4 -165 9 -5
9 -9 1 -14 -16 -10 -14 -26 4 -26 29 0 12 -33 -20 -38 -11 -2 -31 -4 -45 -5
-19 -2 -26 -8 -28 -30 -2 -15 -12 -31 -22 -37 -10 -5 -23 -23 -28 -40 -14 -38
-40 -39 -53 0 -7 18 -18 30 -29 30 -20 0 -32 -23 -24 -44 3 -8 -2 -28 -10 -45
-16 -29 -17 -30 -35 -13 -10 9 -16 21 -13 26 3 5 -9 6 -26 3 -24 -5 -32 -3
-32 8 0 8 -5 15 -11 15 -6 0 -9 13 -7 29 3 31 -24 71 -49 71 -7 0 -13 3 -13 8
0 11 30 92 41 113 11 21 58 22 66 1 4 -10 9 -10 19 -1 21 17 24 8 14 -36 -5
-22 -10 -48 -10 -58 0 -16 2 -16 14 -5 7 8 21 28 30 46 16 32 31 38 53 24 9
-5 8 -22 -2 -70 -10 -48 -10 -62 0 -62 6 0 17 10 23 23 13 26 12 199 -1 208
-5 4 5 13 22 20 17 8 31 21 31 31 0 9 5 20 11 24 7 4 9 21 5 43 -6 39 0 54 26
64 9 3 21 22 27 42 8 31 7 39 -15 62 -13 14 -21 29 -18 34 3 5 -2 9 -10 9 -9
0 -16 -4 -16 -10 0 -18 -16 -10 -30 14 -11 21 -39 37 -75 41 -5 1 -28 9 -49
18 -22 10 -41 15 -44 12 -3 -3 -10 -1 -17 5 -7 6 -32 6 -66 1 -32 -6 -59 -5
-65 0 -8 6 -38 4 -83 -5 -65 -14 -76 -20 -116 -63 -25 -26 -43 -55 -41 -63 22
-80 22 -177 0 -202 -22 -24 -14 -54 14 -51 18 2 24 -3 29 -28 4 -20 10 -28 19
-25 8 4 21 9 29 12 11 4 15 0 15 -15 0 -12 -4 -21 -10 -21 -5 0 -14 -8 -19
-19 -10 -18 -9 -18 32 -4 23 8 47 19 54 25 7 5 19 8 27 6 12 -3 12 -8 1 -41
-7 -22 -9 -40 -3 -43 5 -3 4 -13 -4 -22 -11 -13 -10 -15 5 -9 32 12 14 -64
-20 -86 -7 -4 -13 -17 -13 -27 0 -11 -4 -20 -10 -20 -12 0 -12 3 -1 33 8 22 7
24 -10 20 -12 -4 -19 -15 -20 -32 -1 -14 -4 -37 -8 -50 l-7 -24 -17 27 c-15
22 -16 30 -6 42 6 8 10 16 8 17 -2 1 -15 11 -28 22 l-24 20 7 -22 c4 -12 2
-24 -4 -28 -5 -3 -8 -16 -5 -28 3 -12 2 -27 -2 -33 -8 -11 -47 -34 -57 -34
-11 0 -6 29 10 64 21 43 13 72 -15 56 -13 -7 -22 -7 -26 0 -3 6 -18 7 -32 4
-19 -5 -24 -4 -18 5 12 20 -15 61 -39 58 -17 -2 -20 3 -18 21 4 26 -5 28 -29
6 -15 -14 -18 -13 -30 15 -11 24 -20 31 -42 31 -42 0 -66 16 -60 40 3 11 1 20
-5 20 -5 0 -12 13 -15 28 -3 15 -17 39 -30 52 -31 32 -40 79 -20 103 11 11 12
17 4 17 -8 0 -10 7 -6 21 4 12 3 19 -2 16 -5 -3 -9 15 -9 43 1 44 4 51 28 61
14 6 28 20 31 31 3 11 14 22 25 25 20 5 32 40 32 95 0 36 37 102 64 114 27 13
109 10 161 -5z m330 -698 c-4 -10 -12 -36 -17 -58 -14 -56 -37 -105 -50 -105
-6 0 -7 7 -3 18 4 9 11 31 15 47 4 17 10 37 14 45 3 8 10 27 15 43 6 15 16 27
22 27 7 0 8 -7 4 -17z m1288 -870 c-7 -2 -19 -2 -25 0 -7 3 -2 5 12 5 14 0 19
-2 13 -5z m-96 -29 c-3 -3 -12 -4 -19 -1 -8 3 -5 6 6 6 11 1 17 -2 13 -5z
m-1769 -132 c3 -9 -3 -13 -19 -10 -12 1 -24 9 -27 16 -3 9 3 13 19 10 12 -1
24 -9 27 -16z m1272 -92 c0 -5 -4 -10 -10 -10 -5 0 -10 5 -10 10 0 6 5 10 10
10 6 0 10 -4 10 -10z m500 -110 c0 -5 -2 -10 -4 -10 -3 0 -8 5 -11 10 -3 6 -1
10 4 10 6 0 11 -4 11 -10z m-20 -140 c0 -5 -4 -10 -10 -10 -5 0 -10 5 -10 10
0 6 5 10 10 10 6 0 10 -4 10 -10z m-10 -24 c0 -3 -4 -8 -10 -11 -5 -3 -10 -1
-10 4 0 6 5 11 10 11 6 0 10 -2 10 -4z"/>
<path d="M6960 5416 c0 -9 5 -16 10 -16 6 0 10 4 10 9 0 6 -4 13 -10 16 -5 3
-10 -1 -10 -9z"/>
<path d="M7150 5400 c0 -5 5 -10 10 -10 6 0 10 5 10 10 0 6 -4 10 -10 10 -5 0
-10 -4 -10 -10z"/>
<path d="M5978 4723 c7 -3 16 -2 19 1 4 3 -2 6 -13 5 -11 0 -14 -3 -6 -6z"/>
<path d="M5350 4323 c0 -4 5 -15 10 -23 8 -13 10 -13 10 2 0 9 -4 20 -10 23
-5 3 -10 3 -10 -2z"/>
<path d="M5310 4270 c0 -24 15 -27 24 -4 9 22 8 24 -9 24 -8 0 -15 -9 -15 -20z"/>
<path d="M5385 7050 c-3 -5 1 -10 9 -10 9 0 16 5 16 10 0 6 -4 10 -9 10 -6 0
-13 -4 -16 -10z"/>
<path d="M4218 6883 c7 -3 16 -2 19 1 4 3 -2 6 -13 5 -11 0 -14 -3 -6 -6z"/>
<path d="M3300 6434 c0 -14 4 -23 10 -19 6 3 10 15 10 26 0 10 -4 19 -10 19
-5 0 -10 -12 -10 -26z"/>
<path d="M3355 6392 c-3 -20 -10 -56 -15 -80 -6 -23 -10 -56 -10 -72 0 -27 -2
-30 -20 -20 -10 6 -18 16 -15 23 10 33 14 138 5 132 -6 -3 -10 -25 -10 -47 0
-39 -29 -141 -51 -182 -20 -34 -13 -153 12 -214 23 -55 23 -56 31 -26 5 16 7
76 4 134 -4 111 1 170 14 170 5 0 15 -7 23 -15 13 -13 18 -6 43 53 34 82 46
97 79 100 21 1 25 -2 25 -26 1 -24 2 -25 11 -8 14 23 -7 66 -32 66 -9 0 -19 6
-22 14 -3 7 -19 18 -36 24 -30 11 -30 10 -36 -26z"/>
<path d="M7348 6021 c-3 -18 -1 -34 3 -37 12 -7 21 34 11 52 -8 14 -10 11 -14
-15z"/>
<path d="M7290 5905 c0 -8 2 -15 4 -15 2 0 6 7 10 15 3 8 1 15 -4 15 -6 0 -10
-7 -10 -15z"/>
<path d="M7287 5863 c-2 -5 -1 -30 3 -58 l7 -50 2 58 c1 54 -2 67 -12 50z"/>
<path d="M7011 3561 c-10 -6 150 -76 242 -105 30 -9 57 -83 57 -157 0 -48 4
-70 16 -80 12 -10 15 -27 12 -73 -3 -55 0 -63 22 -83 14 -12 32 -23 41 -23 9
0 22 -7 29 -15 7 -8 19 -15 26 -15 21 0 7 49 -25 83 -22 24 -27 40 -32 115 -7
82 -6 89 18 120 l24 32 -36 38 c-20 21 -45 58 -57 82 -30 59 -73 76 -214 83
-61 3 -116 2 -123 -2z"/>
<path d="M6975 3490 c-3 -5 1 -10 9 -10 9 0 16 5 16 10 0 6 -4 10 -9 10 -6 0
-13 -4 -16 -10z"/>
<path d="M7015 3480 c3 -5 10 -10 16 -10 5 0 9 5 9 10 0 6 -7 10 -16 10 -8 0
-12 -4 -9 -10z"/>
<path d="M7051 3462 c-1 -7 7 -16 17 -19 9 -4 23 -13 31 -20 7 -8 16 -11 20
-8 3 4 -2 13 -12 20 -13 10 -15 14 -5 18 8 2 9 8 4 13 -5 5 -11 4 -13 -3 -3
-7 -11 -13 -18 -13 -7 0 -16 6 -18 13 -4 9 -6 9 -6 -1z"/>
<path d="M6950 3439 c0 -11 4 -18 10 -14 5 3 7 12 3 20 -7 21 -13 19 -13 -6z"/>
<path d="M6997 3420 c-3 -13 -10 -18 -21 -14 -11 4 -16 1 -16 -10 0 -12 10
-16 35 -16 37 0 38 2 29 38 -8 27 -20 29 -27 2z"/>
<path d="M3551 3317 c-13 -74 -14 -178 -2 -137 9 30 24 200 18 200 -3 0 -10
-28 -16 -63z"/>
<path d="M7272 3249 c2 -7 10 -15 17 -17 8 -3 12 1 9 9 -2 7 -10 15 -17 17 -8
3 -12 -1 -9 -9z"/>
<path d="M7294 3205 c-9 -22 1 -29 15 -11 8 10 9 16 1 21 -5 3 -13 -1 -16 -10z"/>
<path d="M3562 3030 c0 -14 2 -19 5 -12 2 6 2 18 0 25 -3 6 -5 1 -5 -13z"/>
<path d="M7310 3027 c0 -13 7 -68 16 -123 8 -54 17 -135 20 -179 3 -44 9 -109
14 -145 5 -36 10 -132 12 -215 1 -82 3 -179 4 -215 2 -117 3 -130 18 -130 10
0 12 -11 8 -47 -3 -27 -9 -49 -13 -51 -13 -5 -11 -42 1 -42 12 0 30 -41 23
-53 -3 -5 -11 0 -17 9 -11 15 -12 13 -8 -14 3 -26 7 -30 26 -23 22 9 36 41 17
41 -17 0 -13 31 5 45 15 10 15 13 0 27 -20 21 -20 42 -1 58 8 7 15 19 15 27 0
13 -3 13 -15 3 -23 -19 -19 19 5 50 24 31 25 39 3 55 -14 10 -15 16 -6 27 15
18 9 294 -7 313 -7 8 -7 15 -1 19 5 3 7 14 4 24 -2 10 3 24 11 31 25 21 19 41
-16 56 -18 8 -26 14 -17 15 26 0 49 34 49 73 0 20 -4 37 -8 37 -4 0 -7 35 -7
78 1 42 -3 85 -8 96 -6 13 -6 16 2 12 7 -5 9 -1 5 8 -3 9 -12 16 -20 16 -8 0
-14 8 -14 18 0 9 -9 28 -20 42 -11 14 -20 31 -20 38 0 7 -4 10 -10 7 -5 -3
-10 0 -10 8 0 12 -20 27 -36 27 -2 0 -4 -11 -4 -23z"/>
<path d="M3571 2984 c0 -11 3 -14 6 -6 3 7 2 16 -1 19 -3 4 -6 -2 -5 -13z"/>
<path d="M3721 2630 c14 -31 19 -36 19 -24 0 6 -7 19 -16 30 -14 18 -14 18 -3
-6z"/>
<path d="M3803 2507 c62 -92 174 -223 247 -291 55 -50 180 -138 249 -175 38
-21 22 -3 -26 28 -112 72 -132 89 -218 175 -88 89 -143 150 -240 269 -26 31
-49 57 -52 57 -2 0 16 -28 40 -63z"/>
<path d="M4335 2020 c3 -5 10 -10 15 -10 4 0 30 -10 57 -22 26 -12 56 -25 65
-30 10 -4 20 -3 23 1 2 5 -30 23 -74 40 -84 34 -95 36 -86 21z"/>
<path d="M4520 1952 c0 -12 25 -22 53 -22 17 1 19 2 7 9 -27 16 -60 22 -60 13z"/>
<path d="M4635 1911 c11 -5 36 -11 55 -15 l35 -6 -30 15 c-16 8 -41 14 -55 14
-23 0 -23 -1 -5 -8z"/>
<path d="M7399 1748 c-7 -14 -9 -48 -6 -92 3 -39 3 -97 -2 -129 -4 -31 -5 -59
-2 -62 8 -9 9 -49 1 -64 -9 -18 13 -94 30 -99 9 -3 11 2 7 19 -3 13 -2 41 2
61 6 26 5 42 -5 56 -12 17 -10 21 11 32 15 8 25 22 25 34 0 17 -2 18 -10 6 -8
-12 -10 -12 -15 2 -4 9 -2 25 3 35 6 10 8 49 5 86 -5 57 -3 70 12 81 26 19 15
50 -18 53 -19 1 -30 -5 -38 -19z"/>
<path d="M7397 1244 c-10 -11 -9 -54 2 -54 15 0 42 31 38 44 -4 13 -30 20 -40
10z"/>
<path d="M7390 1146 c0 -10 9 -16 26 -16 14 0 23 -4 19 -10 -3 -5 -2 -10 3
-10 9 0 26 30 20 35 -2 2 -18 6 -35 10 -26 5 -33 3 -33 -9z"/>
<path d="M7416 1070 c-19 -6 -19 -7 -1 -13 20 -8 29 -4 24 11 -2 5 -13 6 -23
2z"/>
<path d="M7400 1004 c0 -8 5 -12 10 -9 6 4 8 11 5 16 -9 14 -15 11 -15 -7z"/>
<path d="M7406 943 c-10 -11 -7 -63 5 -63 6 0 9 6 6 13 -2 6 0 20 4 29 9 17
-2 33 -15 21z"/>
<path d="M10195 760 c-10 -11 -13 -20 -8 -20 13 0 38 29 31 35 -3 3 -13 -4
-23 -15z"/>
<path d="M7415 741 c-3 -5 -1 -12 5 -16 5 -3 10 1 10 9 0 18 -6 21 -15 7z"/>
<path d="M7400 614 c0 -22 6 -46 13 -55 13 -16 47 -22 47 -7 0 4 -4 8 -9 8 -6
0 -5 15 1 36 11 41 12 40 -25 49 -26 7 -27 6 -27 -31z"/>
<path d="M7428 513 c-13 -3 -17 -12 -13 -36 12 -97 16 -129 20 -202 3 -44 9
-93 14 -110 5 -16 10 -37 10 -45 2 -21 9 -103 10 -112 1 -5 12 -8 26 -8 27 0
35 26 13 48 -9 9 -9 18 0 36 7 17 8 35 1 58 -5 18 -9 49 -9 69 0 37 -23 103
-38 113 -5 3 -6 28 -1 55 9 57 5 135 -7 137 -5 1 -17 0 -26 -3z"/>
<path d="M8877 164 c-8 -8 3 -34 14 -34 11 0 12 27 0 34 -4 3 -11 3 -14 0z"/>
<path d="M8884 45 c-9 -22 3 -45 22 -45 11 0 14 5 10 16 -3 9 -6 22 -6 30 0
19 -19 18 -26 -1z"/>
</g>
</svg>
